<svg width="753" height="661" viewBox="0 0 753 661" fill="none" xmlns="http://www.w3.org/2000/svg">
<path d="M423.146 455.027V457.402C423.146 458.235 422.969 459.061 422.626 459.831C422.282 460.601 421.779 461.301 421.145 461.89C420.511 462.479 419.758 462.946 418.929 463.265C418.1 463.583 417.212 463.747 416.315 463.746H230.663C220.911 463.746 211.451 460.658 203.841 454.989C196.232 449.32 190.928 441.409 188.803 432.562L155.581 294.595C154.792 291.314 154.806 287.911 155.622 284.636C156.438 281.361 158.035 278.299 160.296 275.675C162.556 273.051 165.422 270.934 168.681 269.478C171.941 268.023 175.51 267.267 179.126 267.267H243.496C250.828 267.264 257.942 269.584 263.664 273.845C269.386 278.106 273.375 284.052 274.973 290.704L305.336 416.826C307.512 425.865 312.935 433.945 320.712 439.734C328.489 445.524 338.156 448.678 348.12 448.677H416.315C418.127 448.677 419.864 449.346 421.145 450.537C422.426 451.728 423.146 453.343 423.146 455.027Z" fill="#D6EAF2"/>
<path d="M223.461 464.475H303.615C311.697 464.484 319.445 467.478 325.154 472.796C330.863 478.115 334.065 485.324 334.057 492.838V589.692C334.062 593.413 333.278 597.098 331.751 600.537C330.223 603.976 327.982 607.102 325.155 609.736C322.329 612.369 318.971 614.46 315.275 615.887C311.579 617.314 307.617 618.051 303.615 618.055H208.462" stroke="#639AD6" stroke-width="3" stroke-miterlimit="10"/>
<path d="M264.085 464.475H370.91C378.988 464.49 386.729 467.486 392.431 472.805C398.134 478.123 401.332 485.329 401.322 492.838V589.692C401.334 597.202 398.136 604.408 392.433 609.727C386.73 615.046 378.988 618.041 370.91 618.055H294.564" stroke="#639AD6" stroke-width="3" stroke-miterlimit="10"/>
<path d="M334.057 563.863H401.347" stroke="#639AD6" stroke-width="3" stroke-miterlimit="10"/>
<path d="M350.492 220.991C350.492 220.991 381.567 222.919 396.718 249.359C411.869 275.799 430.779 311.874 430.779 311.874C430.779 311.874 484.158 310.483 523.651 333.401V349.878H410.123C396.018 349.878 350.516 299.814 347.858 267.38C345.2 234.946 350.492 220.991 350.492 220.991Z" fill="#F9C543"/>
<path d="M514.783 349.736C512.502 349.295 514.175 342.493 515.507 338.297C516.249 335.985 518.031 334.809 520.373 333.808C525.081 331.817 533.219 329.567 537.817 330.528C544.556 331.942 548.887 335.9 553.102 340.593C554.319 341.939 560.237 348.391 560.237 350.115L514.783 349.736Z" fill="#D8AEAD"/>
<path d="M291.955 210.135C272.217 210.197 231.307 248.472 238.509 345.778C243.819 417.425 267.832 447.558 273.142 445.448C278.452 443.339 342.542 391.127 351.264 362.922C359.986 334.718 406.322 237.898 345.291 219.3C302.702 206.329 298.268 210.118 291.955 210.135Z" fill="#F9C543"/>
<path d="M491.336 618.518H421.808C421.735 617.529 421.71 616.59 421.729 615.691H491.415C491.493 616.634 491.466 617.581 491.336 618.518Z" fill="white"/>
<path d="M428.888 589.596C429.137 596.647 421.808 601.114 421.808 615.686H491.335C491.335 615.686 492.345 603.461 478.441 600.645C464.536 597.829 451.891 594.063 450.626 589.596H428.888Z" fill="#A1CBE2"/>
<path d="M451.119 602.771L457.463 594.035" stroke="white" stroke-width="3" stroke-miterlimit="10" stroke-linecap="round"/>
<path d="M456.07 603.828L462.037 595.805" stroke="white" stroke-width="3" stroke-miterlimit="10" stroke-linecap="round"/>
<path d="M462.548 604.185L467.371 596.868" stroke="white" stroke-width="3" stroke-miterlimit="10" stroke-linecap="round"/>
<path d="M354.117 368.153C354.117 368.153 460.236 361.984 486.026 390.205C511.815 418.426 461.751 519.001 456.696 580.108C456.696 580.108 431.302 582.46 420.993 580.108C410.683 577.756 401.705 473.285 427.683 444.606C427.683 444.606 328.917 465.725 290.416 439.087C251.914 412.449 338.096 368.667 354.117 368.153Z" fill="#242854"/>
<path d="M421.236 591.847C424.885 592.847 435.767 595.562 457.292 592.378C458.406 592.214 459.227 590.614 459.227 589.551V581.787C459.227 581.483 459.156 581.183 459.02 580.906C458.884 580.629 458.685 580.383 458.438 580.184C458.19 579.985 457.9 579.838 457.585 579.753C457.271 579.667 456.941 579.646 456.617 579.69C437.993 582.2 425.761 580.821 420.646 579.757C420.29 579.685 419.921 579.693 419.569 579.78C419.218 579.867 418.893 580.03 418.622 580.257C418.352 580.483 418.144 580.766 418.014 581.083C417.885 581.399 417.838 581.739 417.878 582.076L419.618 590.032C419.667 590.448 419.846 590.842 420.134 591.165C420.421 591.488 420.805 591.725 421.236 591.847Z" fill="#4E577D"/>
<path d="M648.456 520.663L593.301 560.012C592.522 559.13 591.817 558.259 591.184 557.417L646.12 518.215C646.996 518.946 647.78 519.767 648.456 520.663Z" fill="white"/>
<path d="M579.548 532.832C584.366 538.299 581.477 545.978 591.014 557.524L646.169 518.17C646.169 518.17 638.967 507.907 626.097 513.539C613.227 519.171 600.727 523.343 596.798 520.516L579.548 532.832Z" fill="#A1CBE2"/>
<path d="M605.952 530.078L605.271 519.894" stroke="white" stroke-width="3" stroke-miterlimit="10" stroke-linecap="round"/>
<path d="M610.143 527.596L609.462 518.481" stroke="white" stroke-width="3" stroke-miterlimit="10" stroke-linecap="round"/>
<path d="M614.334 525.119L613.652 517.061" stroke="white" stroke-width="3" stroke-miterlimit="10" stroke-linecap="round"/>
<path d="M272.765 441.909C274.352 449.864 364.67 469.157 460.741 412.749C460.741 412.749 469.208 477.973 566.289 527.33C566.289 527.33 587.668 518.848 593.477 507.46C593.477 507.46 531.437 438.601 507.046 375.373C496.81 348.826 367.985 362.724 349.129 368.153C330.274 373.581 265.685 406.433 272.765 441.909Z" fill="#242854"/>
<path d="M280.399 446.364C275.716 444.826 273.058 443.209 272.796 441.903C266.44 410.069 317.848 380.338 342.062 370.658C318.11 383.617 277.236 416.967 280.399 446.364Z" fill="#383C4D"/>
<path d="M573.326 536.976C576.884 535.698 586.823 531.135 601.816 516.428C602.191 516.06 602.412 515.58 602.44 515.075C602.468 514.569 602.3 514.07 601.968 513.669L596.883 507.511C596.684 507.27 596.432 507.071 596.143 506.928C595.854 506.785 595.536 506.702 595.209 506.684C594.883 506.666 594.556 506.713 594.251 506.822C593.945 506.932 593.669 507.101 593.441 507.319C580.309 519.855 570.291 525.232 565.553 527.307C565.225 527.451 564.939 527.665 564.718 527.932C564.497 528.199 564.347 528.511 564.281 528.843C564.215 529.174 564.235 529.515 564.338 529.838C564.442 530.161 564.627 530.456 564.878 530.7L570.869 536.462C571.179 536.762 571.577 536.971 572.014 537.063C572.451 537.154 572.907 537.124 573.326 536.976Z" fill="#6874A7"/>
<path d="M297.253 231.192C317.775 237.525 342.925 304.399 342.925 304.399C342.925 304.399 378.982 310.749 427.908 329.788C427.908 329.788 430.53 341.769 424.083 349.878C424.083 349.878 326.995 350.584 317.519 349.878C308.043 349.171 263.483 315.086 252.486 277.383C241.489 239.679 272.187 223.451 297.253 231.192Z" fill="#F9C543"/>
<path d="M435.84 300.096L456.441 347.52H459.981L438.802 298.982C438.65 298.633 438.36 298.35 437.992 298.192C437.624 298.033 437.204 298.011 436.819 298.129C436.612 298.193 436.422 298.297 436.259 298.432C436.097 298.567 435.966 298.732 435.874 298.916C435.782 299.101 435.732 299.3 435.726 299.503C435.72 299.706 435.759 299.908 435.84 300.096Z" fill="#41465A"/>
<path d="M427.683 333.35C427.683 333.35 442.032 326.299 448.777 327.695C455.522 329.092 463.606 334.741 464.451 336.324C465.297 337.907 471.191 345.569 471.191 347.294C471.191 349.018 452.122 348.391 449.44 348.391C446.758 348.391 429.125 348.651 425.719 347.995C422.313 347.339 427.683 333.35 427.683 333.35Z" fill="#D8AEAD"/>
<path d="M449.44 348.391C452.122 348.391 471.191 349.018 471.191 347.294C471.191 345.569 465.291 337.89 464.451 336.324C463.612 334.758 455.516 329.115 448.777 327.707C448.777 327.707 457.098 338.45 449.44 348.391Z" fill="#D8AEAD"/>
<path d="M424.083 349.878C424.083 349.878 326.995 350.584 317.519 349.878C308.043 349.171 263.483 315.086 252.486 277.383" stroke="#E59E38" stroke-width="3" stroke-miterlimit="10"/>
<path d="M297.253 231.192C317.774 237.525 342.925 304.399 342.925 304.399C342.925 304.399 367.127 308.663 402.782 320.673" stroke="#E59E38" stroke-width="3" stroke-miterlimit="10"/>
<path d="M543.571 350.008V347.181C543.573 346.404 543.403 345.636 543.072 344.924C542.741 344.212 542.255 343.57 541.646 343.04C541.037 342.51 540.316 342.101 539.53 341.841C538.744 341.581 537.908 341.473 537.075 341.526L426.065 347.961C425.503 347.999 424.978 348.234 424.594 348.618C424.211 349.002 423.997 349.506 423.997 350.03L543.571 350.008Z" fill="#A1CBE2"/>
<path d="M303.749 167.054C303.749 167.054 301.316 195.592 282.91 213.669C282.91 213.669 303.523 228.862 325.913 217.525L328.346 167.161L303.749 167.054Z" fill="#D8AEAD"/>
<path d="M357.572 160.845C357.572 160.845 352.097 173.285 354.068 196.236C356.039 219.187 316.826 207.223 316.163 191.356C315.5 175.49 318.158 161.037 322.592 160.823C327.026 160.608 357.572 160.845 357.572 160.845Z" fill="#D8AEAD"/>
<path d="M297.818 185.685C297.818 185.685 303.736 172.635 299.576 158.092C296.535 147.461 308.846 141.281 319.265 146.952C319.265 146.952 358.502 126.857 367.352 148.813C378.021 175.275 326.357 161.886 325.469 162.92C324.581 163.955 321.631 184.548 327.172 191.554C332.713 198.56 338.844 191.515 346.818 191.034C355.078 190.531 354.068 195.614 354.068 195.614C354.068 195.614 356.538 207.958 357.426 212.696C358.314 217.435 326.716 225.435 318.377 213.403C310.81 202.49 315.64 180.421 312.544 178.583C306.121 174.778 300.914 181.506 304.478 184.187C304.478 184.187 300.567 186.386 297.818 185.685Z" fill="#242854"/>
<path d="M364.864 165.227C352.7 171.311 327.397 163.678 325.134 162.298L364.864 165.227Z" fill="#242854"/>
<path d="M308.249 142.389C312.507 142.078 317.13 143.633 319.265 147.309L308.249 142.389Z" fill="#4E2556"/>
<path d="M338.661 180.76C339.683 180.76 340.51 179.795 340.51 178.606C340.51 177.416 339.683 176.451 338.661 176.451C337.64 176.451 336.812 177.416 336.812 178.606C336.812 179.795 337.64 180.76 338.661 180.76Z" fill="#242854"/>
<path d="M351.812 180.76C352.588 180.76 353.217 179.795 353.217 178.606C353.217 177.416 352.588 176.451 351.812 176.451C351.036 176.451 350.406 177.416 350.406 178.606C350.406 179.795 351.036 180.76 351.812 180.76Z" fill="#242854"/>
<path d="M337.901 185.498C341.868 185.498 345.084 182.276 345.084 178.3C345.084 174.325 341.868 171.102 337.901 171.102C333.934 171.102 330.718 174.325 330.718 178.3C330.718 182.276 333.934 185.498 337.901 185.498Z" stroke="white" stroke-width="3" stroke-miterlimit="10"/>
<path d="M354.616 185.498C357.965 185.498 360.68 182.276 360.68 178.3C360.68 174.325 357.965 171.102 354.616 171.102C351.266 171.102 348.551 174.325 348.551 178.3C348.551 182.276 351.266 185.498 354.616 185.498Z" stroke="white" stroke-width="3" stroke-miterlimit="10"/>
<path d="M345.084 177.989H348.545" stroke="white" stroke-width="3" stroke-miterlimit="10"/>
<path d="M330.341 177.633L309.825 177.367C308.52 177.369 307.23 177.621 306.035 178.107C304.839 178.594 303.765 179.304 302.879 180.195" stroke="white" stroke-width="3" stroke-miterlimit="10"/>
<path d="M702.887 350.392V618.53H683.484V368.102H57.1441V618.53H37.7412V350.392H702.887Z" fill="#FFF4DE"/>
<path d="M680.79 309.013H476.032C474.525 309.013 473.038 308.689 471.686 308.068C470.335 307.447 469.156 306.544 468.241 305.431C467.325 304.317 466.698 303.023 466.408 301.647C466.118 300.272 466.173 298.853 466.568 297.501L500.538 181.19C502.363 175.043 508.33 170.062 515.179 170.062H719.936C726.402 170.062 731.097 176.491 729.4 182.292L695.43 298.604C694.558 301.592 692.652 304.231 690.006 306.112C687.36 307.994 684.121 309.013 680.79 309.013Z" fill="white"/>
<path d="M680.796 309.013H481.902C480.436 309.012 478.99 308.696 477.676 308.091C476.363 307.486 475.217 306.608 474.327 305.524C473.438 304.441 472.829 303.182 472.548 301.844C472.266 300.507 472.32 299.127 472.705 297.812L505.678 184.616C506.524 181.711 508.376 179.145 510.947 177.314C513.519 175.484 516.666 174.491 519.905 174.489H718.799C720.265 174.491 721.711 174.807 723.024 175.412C724.338 176.017 725.484 176.895 726.374 177.978C727.264 179.062 727.874 180.321 728.156 181.658C728.438 182.995 728.385 184.375 728.001 185.691L694.998 298.886C694.153 301.788 692.305 304.352 689.738 306.181C687.172 308.011 684.03 309.006 680.796 309.013Z" fill="#D4D1F4"/>
<path d="M680.796 309.013H481.902C480.436 309.012 478.99 308.696 477.676 308.091C476.363 307.486 475.217 306.608 474.327 305.524C473.438 304.441 472.829 303.182 472.548 301.844C472.266 300.507 472.32 299.127 472.705 297.812L505.678 184.616C506.524 181.711 508.376 179.145 510.947 177.314C513.519 175.484 516.666 174.491 519.905 174.489H718.799C720.265 174.491 721.711 174.807 723.024 175.412C724.338 176.017 725.484 176.895 726.374 177.978C727.264 179.062 727.874 180.321 728.156 181.658C728.438 182.995 728.385 184.375 728.001 185.691L694.998 298.886C694.153 301.788 692.305 304.352 689.738 306.181C687.172 308.011 684.03 309.006 680.796 309.013Z" fill="#EBF4F7"/>
<path d="M496.974 214.477L505.678 184.616C506.524 181.711 508.376 179.145 510.947 177.314C513.519 175.484 516.666 174.491 519.905 174.489H639.083" stroke="#639AD6" stroke-width="3" stroke-linecap="round" stroke-linejoin="round"/>
<path d="M695.023 298.886C694.176 301.792 692.324 304.358 689.753 306.188C687.182 308.018 684.034 309.011 680.796 309.013H481.902C480.436 309.012 478.99 308.696 477.676 308.091C476.363 307.486 475.217 306.608 474.327 305.524C473.438 304.441 472.829 303.182 472.548 301.844C472.266 300.507 472.32 299.127 472.705 297.812L490.101 238.141" stroke="#639AD6" stroke-width="3" stroke-linecap="round" stroke-linejoin="round"/>
<path d="M635.914 340.113L616.146 276.297H569.865L588.283 335.719C589.785 340.559 585.418 345.281 579.445 345.281H566.672C566.283 345.262 565.903 345.387 565.613 345.629C565.324 345.87 565.149 346.209 565.127 346.57V349.052C565.149 349.413 565.324 349.751 565.613 349.993C565.903 350.235 566.283 350.36 566.672 350.341H626.717C632.94 350.341 637.471 345.134 635.914 340.113Z" fill="#D6EAF2"/>
<path d="M583.143 348.108H565.151V346.57C565.173 346.209 565.348 345.87 565.638 345.629C565.927 345.387 566.308 345.262 566.696 345.281H579.439C585.418 345.281 589.779 340.559 588.283 335.719L569.865 276.297H573.174L591.969 337.444C592.329 338.7 592.373 340.017 592.098 341.293C591.823 342.568 591.237 343.767 590.384 344.798C589.531 345.829 588.434 346.663 587.178 347.237C585.923 347.811 584.542 348.109 583.143 348.108Z" fill="white"/>
<path d="M569.865 276.297V309.075H580.023L569.865 276.297Z" fill="#A1CBE2"/>
<path d="M510.38 297.501H500.216L499.437 300.125H509.601L510.38 297.501Z" fill="#A1CBE2"/>
<path d="M531.388 297.501H522.003L521.23 300.125H530.609L531.388 297.501Z" fill="#A1CBE2"/>
<path d="M627.131 349.442C633.329 349.442 637.86 345.162 636.303 340.141L616.517 276.325" stroke="#639AD6" stroke-width="3" stroke-miterlimit="10"/>
<path d="M526.309 298.813H531.273C532.097 298.813 532.887 299.117 533.47 299.659C534.053 300.201 534.381 300.936 534.381 301.702V388.706C534.381 390.786 535.269 392.781 536.852 394.252C538.434 395.723 540.579 396.549 542.817 396.549C545.053 396.548 547.198 395.721 548.778 394.25C550.359 392.779 551.247 390.785 551.247 388.706V349.821C551.247 349.442 551.167 349.066 551.01 348.716C550.854 348.366 550.625 348.048 550.336 347.78C550.048 347.512 549.705 347.3 549.328 347.155C548.951 347.011 548.547 346.937 548.139 346.937H543.571" stroke="#639AD6" stroke-width="3" stroke-miterlimit="10"/>
<path d="M134.135 316.358H109.015C105.995 316.358 103.547 318.634 103.547 321.442V344.794C103.547 347.602 105.995 349.878 109.015 349.878H134.135C137.155 349.878 139.603 347.602 139.603 344.794V321.442C139.603 318.634 137.155 316.358 134.135 316.358Z" fill="#F9C543"/>
<path d="M119.732 316.358C119.732 316.358 115.255 285.327 147.96 276.529C147.96 276.529 133.843 289.46 129.543 316.358H119.732Z" fill="#A1CBE2"/>
<path d="M125.468 316.358C125.468 316.358 121.575 289.166 95.457 287.346C95.457 287.346 111.879 293.741 112.068 316.358H125.468Z" fill="#A1CBE2"/>
<path d="M116.63 316.358C116.63 316.358 113.254 294.244 124.537 283.727C124.537 283.727 121.727 302.743 125.455 316.358H116.63Z" fill="#D6EAF2"/>
<path d="M121.575 316.358C121.575 316.358 132.639 310.613 131.915 300.045C131.915 300.045 138.143 309.454 133.192 316.358H121.575Z" fill="#D6EAF2"/>
<path d="M109.957 316.358C109.957 316.358 106.819 308.052 99.076 305.491C99.076 305.491 113.187 305.146 116.63 316.358H109.957Z" fill="#D6EAF2"/>
<path d="M348.034 179.279L353.028 188.326L348.795 190.881" fill="#A57574"/>
<path d="M348.034 179.279L353.028 188.326L348.795 190.881" stroke="#4E2556" stroke-width="3" stroke-linecap="round" stroke-linejoin="round"/>
<path d="M53.3182 157.662H256.069V174.919L53.2818 158.991C52.7404 158.94 52.7769 157.662 53.3182 157.662Z" fill="#FFF4DE"/>
<path d="M234.202 72.3085H225.675C223.945 72.3085 222.543 73.6123 222.543 75.2206V140.161C222.543 141.77 223.945 143.073 225.675 143.073H234.202C235.932 143.073 237.335 141.77 237.335 140.161V75.2206C237.335 73.6123 235.932 72.3085 234.202 72.3085Z" fill="white" stroke="#F1B104" stroke-width="3" stroke-miterlimit="10"/>
<path d="M218.571 78.2966H208.389C206.699 78.2966 205.329 79.5699 205.329 81.1407V141.632C205.329 143.202 206.699 144.476 208.389 144.476H218.571C220.26 144.476 221.63 143.202 221.63 141.632V81.1407C221.63 79.5699 220.26 78.2966 218.571 78.2966Z" fill="#F1B104"/>
<path d="M202.477 62.2267H199.727C198.152 62.2267 196.875 63.414 196.875 64.8786V141.824C196.875 143.288 198.152 144.476 199.727 144.476H202.477C204.052 144.476 205.329 143.288 205.329 141.824V64.8786C205.329 63.414 204.052 62.2267 202.477 62.2267Z" fill="#D6EAF2"/>
<path d="M193.14 83.0858H185.817C184.09 83.0858 182.691 84.3871 182.691 85.9922V140.727C182.691 142.332 184.09 143.633 185.817 143.633H193.14C194.867 143.633 196.267 142.332 196.267 140.727V85.9922C196.267 84.3871 194.867 83.0858 193.14 83.0858Z" fill="white" stroke="#F1B104" stroke-width="3" stroke-miterlimit="10"/>
<path d="M157.443 144.476H145.594L175.234 70.6461C175.348 70.3594 175.554 70.1118 175.823 69.9361C176.093 69.7604 176.413 69.6649 176.742 69.6623H185.148C185.411 69.6666 185.669 69.7295 185.9 69.8458C186.132 69.9622 186.33 70.1285 186.478 70.3307C186.625 70.533 186.719 70.7653 186.75 71.0082C186.781 71.251 186.749 71.4972 186.656 71.7261L157.443 144.476Z" fill="#F1B104"/>
<path d="M255.485 144.476H53.7623V156.848H255.485V144.476Z" fill="white" stroke="#F1B104" stroke-width="3" stroke-miterlimit="10"/>
<path d="M74.1504 117.046H125.066V122.243C125.066 128.141 122.546 133.797 118.06 137.968C113.573 142.138 107.489 144.481 101.144 144.481H98.0664C91.7219 144.481 85.6372 142.138 81.151 137.968C76.6647 133.797 74.1443 128.141 74.1443 122.243V117.046H74.1504Z" fill="#F1B104"/>
<path d="M119.957 117.046H82.2461C82.2461 117.046 71.2187 125.409 64.9174 118.55C60.3556 113.586 82.1853 113.36 82.1853 113.36L82.8422 113.15C82.8422 113.15 73.4753 94.8753 82.3252 91.8276C88.438 89.7128 89.916 105.2 90.2323 110.227C93.4499 108.977 99.733 107.174 100.268 111.923C100.268 111.923 100.968 92.3647 109.781 94.2307C117.08 95.7856 106.241 114.168 106.241 114.168L107.008 114.598C107.008 114.598 127.14 100.925 132.079 104.103C135.814 106.506 119.957 117.046 119.957 117.046Z" fill="#A1CBE2"/>
<path d="M88.0183 117.046C88.0183 117.046 88.4076 100.185 95.2381 100.648C102.069 101.112 92.5497 117.046 92.5497 117.046H88.0183Z" fill="#D6EAF2"/>
<path d="M88.0183 117.046C88.0183 117.046 81.1695 101.135 71.8878 105.212C62.819 109.17 82.3252 117.046 82.3252 117.046H88.0183Z" fill="#D6EAF2"/>
<path d="M102.099 117.046C102.099 117.046 108.267 102.712 117.998 104.075C127.73 105.438 105.955 117.046 105.955 117.046H102.099Z" fill="#D6EAF2"/>
<path d="M112.123 117.046C112.123 117.046 131.197 108.118 134.628 113.501C138.058 118.884 112.123 117.046 112.123 117.046Z" fill="#D6EAF2"/>
</svg>
