<svg version="1.2" baseProfile="tiny-ps" xmlns="http://www.w3.org/2000/svg" viewBox="0 0 702 565" width="702" height="565">
	<title>Homesvg-svg</title>
	<style>
		tspan { white-space:pre }
		.shp0 { fill: #d6eaf2 } 
		.shp1 { fill: none;stroke: #639ad6;stroke-width: 3 } 
		.shp2 { fill: #f9c543 } 
		.shp3 { fill: #d8aead } 
		.shp4 { fill: #ffffff } 
		.shp5 { fill: #a1cbe2 } 
		.shp6 { fill: none;stroke: #ffffff;stroke-linecap:round;stroke-width: 3 } 
		.shp7 { fill: #242854 } 
		.shp8 { fill: #4e577d } 
		.shp9 { fill: #383c4d } 
		.shp10 { fill: #6874a7 } 
		.shp11 { fill: #41465a } 
		.shp12 { fill: none;stroke: #e59e38;stroke-width: 3 } 
		.shp13 { fill: #4e2556 } 
		.shp14 { fill: none;stroke: #ffffff;stroke-width: 3 } 
		.shp15 { fill: #fff4de } 
		.shp16 { fill: #d4d1f4 } 
		.shp17 { fill: #ebf4f7 } 
		.shp18 { fill: none;stroke: #639ad6;stroke-linecap:round;stroke-linejoin:round;stroke-width: 3 } 
		.shp19 { fill: #a57574 } 
		.shp20 { fill: none;stroke: #4e2556;stroke-linecap:round;stroke-linejoin:round;stroke-width: 3 } 
		.shp21 { fill: #ffffff;stroke: #f1b104;stroke-width: 3 } 
		.shp22 { fill: #f1b104 } 
	</style>
	<path id="Layer" class="shp0" d="M391.15 396.03L391.15 398.4C391.15 399.24 390.97 400.06 390.63 400.83C390.28 401.6 389.78 402.3 389.14 402.89C388.51 403.48 387.76 403.95 386.93 404.26C386.1 404.58 385.21 404.75 384.31 404.75L198.66 404.75C188.91 404.75 179.45 401.66 171.84 395.99C164.23 390.32 158.93 382.41 156.8 373.56L123.58 235.6C122.79 232.31 122.81 228.91 123.62 225.64C124.44 222.36 126.03 219.3 128.3 216.68C130.56 214.05 133.42 211.93 136.68 210.48C139.94 209.02 143.51 208.27 147.13 208.27L211.5 208.27C218.83 208.26 225.94 210.58 231.66 214.85C237.39 219.11 241.38 225.05 242.97 231.7L273.34 357.83C275.51 366.87 280.94 374.94 288.71 380.73C296.49 386.52 306.16 389.68 316.12 389.68L384.31 389.68C386.13 389.68 387.86 390.35 389.14 391.54C390.43 392.73 391.15 394.34 391.15 396.03Z" />
	<path id="Layer" class="shp1" d="M191.46 405.48L271.62 405.48C279.7 405.48 287.44 408.48 293.15 413.8C298.86 419.12 302.06 426.32 302.06 433.84L302.06 530.69C302.06 534.41 301.28 538.1 299.75 541.54C298.22 544.98 295.98 548.1 293.15 550.74C290.33 553.37 286.97 555.46 283.27 556.89C279.58 558.31 275.62 559.05 271.62 559.05L176.46 559.05" />
	<path id="Layer" class="shp1" d="M232.08 405.48L338.91 405.48C346.99 405.49 354.73 408.49 360.43 413.81C366.13 419.12 369.33 426.33 369.32 433.84L369.32 530.69C369.33 538.2 366.14 545.41 360.43 550.73C354.73 556.05 346.99 559.04 338.91 559.05L262.56 559.05" />
	<path id="Layer" class="shp1" d="M302.06 504.86L369.35 504.86" />
	<path id="Layer" class="shp2" d="M318.49 161.99C318.49 161.99 349.57 163.92 364.72 190.36C379.87 216.8 398.78 252.87 398.78 252.87C398.78 252.87 452.16 251.48 491.65 274.4L491.65 290.88L378.12 290.88C364.02 290.88 318.52 240.81 315.86 208.38C313.2 175.95 318.49 161.99 318.49 161.99Z" />
	<path id="Layer" class="shp3" d="M482.78 290.74C480.5 290.3 482.17 283.49 483.51 279.3C484.25 276.99 486.03 275.81 488.37 274.81C493.08 272.82 501.22 270.57 505.82 271.53C512.56 272.94 516.89 276.9 521.1 281.59C522.32 282.94 528.24 289.39 528.24 291.12L482.78 290.74Z" />
	<path id="Layer" class="shp2" d="M259.95 151.13C240.22 151.2 199.31 189.47 206.51 286.78C211.82 358.43 235.83 388.56 241.14 386.45C246.45 384.34 310.54 332.13 319.26 303.92C327.99 275.72 374.32 178.9 313.29 160.3C270.7 147.33 266.27 151.12 259.95 151.13Z" />
	<path id="Layer" class="shp4" d="M459.34 559.52L389.81 559.52C389.74 558.53 389.71 557.59 389.73 556.69L459.42 556.69C459.49 557.63 459.47 558.58 459.34 559.52Z" />
	<path id="Layer" class="shp5" d="M396.89 530.6C397.14 537.65 389.81 542.11 389.81 556.69L459.33 556.69C459.33 556.69 460.35 544.46 446.44 541.64C432.54 538.83 419.89 535.06 418.63 530.6L396.89 530.6Z" />
	<path id="Layer" class="shp6" d="M419.12 543.77L425.46 535.03" />
	<path id="Layer" class="shp6" d="M424.07 544.83L430.04 536.8" />
	<path id="Layer" class="shp6" d="M430.55 545.18L435.37 537.87" />
	<path id="Layer" class="shp7" d="M322.12 309.15C322.12 309.15 428.24 302.98 454.03 331.2C479.81 359.43 429.75 460 424.7 521.11C424.7 521.11 399.3 523.46 388.99 521.11C378.68 518.76 369.7 414.29 395.68 385.61C395.68 385.61 296.92 406.73 258.42 380.09C219.91 353.45 306.1 309.67 322.12 309.15Z" />
	<path id="Layer" class="shp8" d="M389.24 532.85C392.88 533.85 403.77 536.56 425.29 533.38C426.41 533.21 427.23 531.61 427.23 530.55L427.23 522.79C427.23 522.48 427.16 522.18 427.02 521.91C426.88 521.63 426.69 521.38 426.44 521.18C426.19 520.99 425.9 520.84 425.58 520.75C425.27 520.67 424.94 520.65 424.62 520.69C405.99 523.2 393.76 521.82 388.65 520.76C388.29 520.68 387.92 520.69 387.57 520.78C387.22 520.87 386.89 521.03 386.62 521.26C386.35 521.48 386.14 521.77 386.01 522.08C385.88 522.4 385.84 522.74 385.88 523.08L387.62 531.03C387.67 531.45 387.85 531.84 388.13 532.16C388.42 532.49 388.81 532.73 389.24 532.85Z" />
	<path id="Layer" class="shp4" d="M616.46 461.66L561.3 501.01C560.52 500.13 559.82 499.26 559.18 498.42L614.12 459.22C615 459.95 615.78 460.77 616.46 461.66Z" />
	<path id="Layer" class="shp5" d="M547.55 473.83C552.37 479.3 549.48 486.98 559.01 498.52L614.17 459.17C614.17 459.17 606.97 448.91 594.1 454.54C581.23 460.17 568.73 464.34 564.8 461.52L547.55 473.83Z" />
	<path id="Layer" class="shp6" d="M573.95 471.08L573.27 460.89" />
	<path id="Layer" class="shp6" d="M578.14 468.6L577.46 459.48" />
	<path id="Layer" class="shp6" d="M582.33 466.12L581.65 458.06" />
	<path id="Layer" class="shp7" d="M240.76 382.91C242.35 390.86 332.67 410.16 428.74 353.75C428.74 353.75 437.21 418.97 534.29 468.33C534.29 468.33 555.67 459.85 561.48 448.46C561.48 448.46 499.44 379.6 475.05 316.37C464.81 289.83 335.99 303.72 317.13 309.15C298.27 314.58 233.69 347.43 240.76 382.91Z" />
	<path id="Layer" class="shp9" d="M248.4 387.36C243.72 385.83 241.06 384.21 240.8 382.9C234.44 351.07 285.85 321.34 310.06 311.66C286.11 324.62 245.24 357.97 248.4 387.36Z" />
	<path id="Layer" class="shp10" d="M541.33 477.98C544.88 476.7 554.82 472.13 569.82 457.43C570.19 457.06 570.41 456.58 570.44 456.08C570.47 455.57 570.3 455.07 569.97 454.67L564.88 448.51C564.68 448.27 564.43 448.07 564.14 447.93C563.85 447.79 563.54 447.7 563.21 447.68C562.88 447.67 562.56 447.71 562.25 447.82C561.95 447.93 561.67 448.1 561.44 448.32C548.31 460.86 538.29 466.23 533.55 468.31C533.23 468.45 532.94 468.66 532.72 468.93C532.5 469.2 532.35 469.51 532.28 469.84C532.22 470.17 532.24 470.51 532.34 470.84C532.44 471.16 532.63 471.46 532.88 471.7L538.87 477.46C539.18 477.76 539.58 477.97 540.01 478.06C540.45 478.15 540.91 478.12 541.33 477.98Z" />
	<path id="Layer" class="shp2" d="M265.25 172.19C285.77 178.53 310.93 245.4 310.93 245.4C310.93 245.4 346.98 251.75 395.91 270.79C395.91 270.79 398.53 282.77 392.08 290.88C392.08 290.88 295 291.58 285.52 290.88C276.04 290.17 231.48 256.09 220.49 218.38C209.49 180.68 240.19 164.45 265.25 172.19Z" />
	<path id="Layer" class="shp11" d="M403.84 241.1L424.44 288.52L427.98 288.52L406.8 239.98C406.65 239.63 406.36 239.35 405.99 239.19C405.62 239.03 405.2 239.01 404.82 239.13C404.61 239.19 404.42 239.3 404.26 239.43C404.1 239.57 403.97 239.73 403.87 239.92C403.78 240.1 403.73 240.3 403.73 240.5C403.72 240.71 403.76 240.91 403.84 241.1Z" />
	<path id="Layer" class="shp3" d="M395.68 274.35C395.68 274.35 410.03 267.3 416.78 268.69C423.52 270.09 431.61 275.74 432.45 277.32C433.3 278.91 439.19 286.57 439.19 288.29C439.19 290.02 420.12 289.39 417.44 289.39C414.76 289.39 397.13 289.65 393.72 289C390.31 288.34 395.68 274.35 395.68 274.35Z" />
	<path id="Layer" class="shp3" d="M417.44 289.39C420.12 289.39 439.19 290.02 439.19 288.29C439.19 286.57 433.29 278.89 432.45 277.32C431.61 275.76 423.52 270.12 416.78 268.71C416.78 268.71 425.1 279.45 417.44 289.39Z" />
	<path id="Layer" class="shp12" d="M392.08 290.88C392.08 290.88 295 291.58 285.52 290.88C276.04 290.17 231.48 256.09 220.49 218.38" />
	<path id="Layer" class="shp12" d="M265.25 172.19C285.77 178.53 310.93 245.4 310.93 245.4C310.93 245.4 335.13 249.66 370.78 261.67" />
	<path id="Layer" class="shp5" d="M511.57 291.01L511.57 288.18C511.57 287.4 511.4 286.64 511.07 285.92C510.74 285.21 510.25 284.57 509.65 284.04C509.04 283.51 508.32 283.1 507.53 282.84C506.74 282.58 505.91 282.47 505.08 282.53L394.06 288.96C393.5 289 392.98 289.23 392.59 289.62C392.21 290 392 290.51 392 291.03L511.57 291.01Z" />
	<path id="Layer" class="shp3" d="M271.75 108.05C271.75 108.05 269.32 136.59 250.91 154.67C250.91 154.67 271.52 169.86 293.91 158.53L296.35 108.16L271.75 108.05Z" />
	<path id="Layer" class="shp3" d="M325.57 101.84C325.57 101.84 320.1 114.28 322.07 137.24C324.04 160.19 284.83 148.22 284.16 132.36C283.5 116.49 286.16 102.04 290.59 101.82C295.03 101.61 325.57 101.84 325.57 101.84Z" />
	<path id="Layer" class="shp7" d="M265.82 126.69C265.82 126.69 271.74 113.63 267.58 99.09C264.54 88.46 276.85 82.28 287.26 87.95C287.26 87.95 326.5 67.86 335.35 89.81C346.02 116.28 294.36 102.89 293.47 103.92C292.58 104.96 289.63 125.55 295.17 132.55C300.71 139.56 306.84 132.51 314.82 132.03C323.08 131.53 322.07 136.61 322.07 136.61C322.07 136.61 324.54 148.96 325.43 153.7C326.31 158.44 294.72 166.44 286.38 154.4C278.81 143.49 283.64 121.42 280.54 119.58C274.12 115.78 268.91 122.51 272.48 125.19C272.48 125.19 268.57 127.39 265.82 126.69Z" />
	<path id="Layer" class="shp7" d="M332.86 106.23C320.7 112.31 295.4 104.68 293.13 103.3L332.86 106.23Z" />
	<path id="Layer" class="shp13" d="M276.25 83.39C280.51 83.08 285.13 84.63 287.26 88.31L276.25 83.39Z" />
	<path id="Layer" class="shp7" d="M306.66 121.76C307.68 121.76 308.51 120.79 308.51 119.61C308.51 118.42 307.68 117.45 306.66 117.45C305.64 117.45 304.81 118.42 304.81 119.61C304.81 120.79 305.64 121.76 306.66 121.76Z" />
	<path id="Layer" class="shp7" d="M319.81 121.76C320.59 121.76 321.22 120.79 321.22 119.61C321.22 118.42 320.59 117.45 319.81 117.45C319.04 117.45 318.41 118.42 318.41 119.61C318.41 120.79 319.04 121.76 319.81 121.76Z" />
	<path id="Layer" class="shp14" d="M305.9 126.5C309.87 126.5 313.08 123.28 313.08 119.3C313.08 115.32 309.87 112.1 305.9 112.1C301.93 112.1 298.72 115.32 298.72 119.3C298.72 123.28 301.93 126.5 305.9 126.5Z" />
	<path id="Layer" class="shp14" d="M322.62 126.5C325.96 126.5 328.68 123.28 328.68 119.3C328.68 115.32 325.96 112.1 322.62 112.1C319.27 112.1 316.55 115.32 316.55 119.3C316.55 123.28 319.27 126.5 322.62 126.5Z" />
	<path id="Layer" class="shp14" d="M313.08 118.99L316.55 118.99" />
	<path id="Layer" class="shp14" d="M298.34 118.63L277.82 118.37C276.52 118.37 275.23 118.62 274.04 119.11C272.84 119.59 271.76 120.3 270.88 121.19" />
	<path id="Layer" class="shp15" d="M670.89 291.39L670.89 559.53L651.48 559.53L651.48 309.1L25.14 309.1L25.14 559.53L5.74 559.53L5.74 291.39L670.89 291.39Z" />
	<path id="Layer" class="shp4" d="M648.79 250.01L444.03 250.01C442.52 250.01 441.04 249.69 439.69 249.07C438.33 248.45 437.16 247.54 436.24 246.43C435.32 245.32 434.7 244.02 434.41 242.65C434.12 241.27 434.17 239.85 434.57 238.5L468.54 122.19C470.36 116.04 476.33 111.06 483.18 111.06L687.94 111.06C694.4 111.06 699.1 117.49 697.4 123.29L663.43 239.6C662.56 242.59 660.65 245.23 658.01 247.11C655.36 248.99 652.12 250.01 648.79 250.01Z" />
	<path id="Layer" class="shp16" d="M648.8 250.01L449.9 250.01C448.44 250.01 446.99 249.7 445.68 249.09C444.36 248.49 443.22 247.61 442.33 246.52C441.44 245.44 440.83 244.18 440.55 242.84C440.27 241.51 440.32 240.13 440.7 238.81L473.68 125.62C474.52 122.71 476.38 120.15 478.95 118.31C481.52 116.48 484.67 115.49 487.9 115.49L686.8 115.49C688.26 115.49 689.71 115.81 691.02 116.41C692.34 117.02 693.48 117.9 694.37 118.98C695.26 120.06 695.87 121.32 696.16 122.66C696.44 124 696.38 125.38 696 126.69L663 239.89C662.15 242.79 660.3 245.35 657.74 247.18C655.17 249.01 652.03 250.01 648.8 250.01Z" />
	<path id="Layer" class="shp17" d="M648.8 250.01L449.9 250.01C448.44 250.01 446.99 249.7 445.68 249.09C444.36 248.49 443.22 247.61 442.33 246.52C441.44 245.44 440.83 244.18 440.55 242.84C440.27 241.51 440.32 240.13 440.7 238.81L473.68 125.62C474.52 122.71 476.38 120.15 478.95 118.31C481.52 116.48 484.67 115.49 487.9 115.49L686.8 115.49C688.26 115.49 689.71 115.81 691.02 116.41C692.34 117.02 693.48 117.9 694.37 118.98C695.26 120.06 695.87 121.32 696.16 122.66C696.44 124 696.38 125.38 696 126.69L663 239.89C662.15 242.79 660.3 245.35 657.74 247.18C655.17 249.01 652.03 250.01 648.8 250.01Z" />
	<path id="Layer" class="shp18" d="M464.97 155.48L473.68 125.62C474.52 122.71 476.38 120.15 478.95 118.31C481.52 116.48 484.67 115.49 487.9 115.49L607.08 115.49" />
	<path id="Layer" class="shp18" d="M663.02 239.89C662.18 242.79 660.32 245.36 657.75 247.19C655.18 249.02 652.03 250.01 648.8 250.01L449.9 250.01C448.44 250.01 446.99 249.7 445.68 249.09C444.36 248.49 443.22 247.61 442.33 246.52C441.44 245.44 440.83 244.18 440.55 242.84C440.27 241.51 440.32 240.13 440.7 238.81L458.1 179.14" />
	<path id="Layer" class="shp0" d="M603.91 281.11L584.15 217.3L537.87 217.3L556.28 276.72C557.78 281.56 553.42 286.28 547.45 286.28L534.67 286.28C534.28 286.26 533.9 286.39 533.61 286.63C533.32 286.87 533.15 287.21 533.13 287.57L533.13 290.05C533.15 290.41 533.32 290.75 533.61 290.99C533.9 291.24 534.28 291.36 534.67 291.34L594.72 291.34C600.94 291.34 605.47 286.13 603.91 281.11Z" />
	<path id="Layer" class="shp4" d="M551.14 289.11L533.15 289.11L533.15 287.57C533.17 287.21 533.35 286.87 533.64 286.63C533.93 286.39 534.31 286.26 534.7 286.28L547.44 286.28C553.42 286.28 557.78 281.56 556.28 276.72L537.87 217.3L541.17 217.3L559.97 278.44C560.33 279.7 560.37 281.02 560.1 282.29C559.82 283.57 559.24 284.77 558.38 285.8C557.53 286.83 556.43 287.66 555.18 288.24C553.92 288.81 552.54 289.11 551.14 289.11Z" />
	<path id="Layer" class="shp5" d="M537.87 217.3L537.87 250.07L548.02 250.07L537.87 217.3Z" />
	<path id="Layer" class="shp5" d="M478.38 238.5L468.22 238.5L467.44 241.13L477.6 241.13L478.38 238.5Z" />
	<path id="Layer" class="shp5" d="M499.39 238.5L490 238.5L489.23 241.13L498.61 241.13L499.39 238.5Z" />
	<path id="Layer" class="shp1" d="M595.13 290.44C601.33 290.44 605.86 286.16 604.3 281.14L584.52 217.32" />
	<path id="Layer" class="shp1" d="M494.31 239.81L499.27 239.81C500.1 239.81 500.89 240.12 501.47 240.66C502.05 241.2 502.38 241.94 502.38 242.7L502.38 329.71C502.38 331.79 503.27 333.78 504.85 335.25C506.43 336.72 508.58 337.55 510.82 337.55C513.05 337.55 515.2 336.72 516.78 335.25C518.36 333.78 519.25 331.79 519.25 329.71L519.25 290.82C519.25 290.44 519.17 290.07 519.01 289.72C518.85 289.37 518.63 289.05 518.34 288.78C518.05 288.51 517.71 288.3 517.33 288.15C516.95 288.01 516.55 287.94 516.14 287.94L511.57 287.94" />
	<path id="Layer" class="shp2" d="M102.13 257.36L77.02 257.36C74 257.36 71.55 259.63 71.55 262.44L71.55 285.79C71.55 288.6 74 290.88 77.02 290.88L102.13 290.88C105.16 290.88 107.6 288.6 107.6 285.79L107.6 262.44C107.6 259.63 105.16 257.36 102.13 257.36Z" />
	<path id="Layer" class="shp5" d="M87.73 257.36C87.73 257.36 83.25 226.33 115.96 217.53C115.96 217.53 101.84 230.46 97.54 257.36L87.73 257.36Z" />
	<path id="Layer" class="shp5" d="M93.47 257.36C93.47 257.36 89.58 230.17 63.46 228.35C63.46 228.35 79.88 234.74 80.07 257.36L93.47 257.36Z" />
	<path id="Layer" class="shp0" d="M84.63 257.36C84.63 257.36 81.25 235.24 92.54 224.73C92.54 224.73 89.73 243.74 93.45 257.36L84.63 257.36Z" />
	<path id="Layer" class="shp0" d="M89.58 257.36C89.58 257.36 100.64 251.61 99.91 241.05C99.91 241.05 106.14 250.45 101.19 257.36L89.58 257.36Z" />
	<path id="Layer" class="shp0" d="M77.96 257.36C77.96 257.36 74.82 249.05 67.08 246.49C67.08 246.49 81.19 246.15 84.63 257.36L77.96 257.36Z" />
	<path id="Layer" class="shp19" d="M316.03 120.28L321.03 129.33L316.8 131.88" />
	<path id="Layer" class="shp20" d="M316.03 120.28L321.03 129.33L316.8 131.88" />
	<path id="Layer" class="shp15" d="M21.32 98.66L224.07 98.66L224.07 115.92L21.28 99.99C20.74 99.94 20.78 98.66 21.32 98.66Z" />
	<path id="Layer" class="shp21" d="M202.2 13.31L193.68 13.31C191.94 13.31 190.54 14.61 190.54 16.22L190.54 81.16C190.54 82.77 191.94 84.07 193.68 84.07L202.2 84.07C203.93 84.07 205.34 82.77 205.34 81.16L205.34 16.22C205.34 14.61 203.93 13.31 202.2 13.31Z" />
	<path id="Layer" class="shp22" d="M186.57 19.3L176.39 19.3C174.7 19.3 173.33 20.57 173.33 22.14L173.33 82.63C173.33 84.2 174.7 85.48 176.39 85.48L186.57 85.48C188.26 85.48 189.63 84.2 189.63 82.63L189.63 22.14C189.63 20.57 188.26 19.3 186.57 19.3Z" />
	<path id="Layer" class="shp0" d="M170.48 3.23L167.73 3.23C166.15 3.23 164.88 4.41 164.88 5.88L164.88 82.82C164.88 84.29 166.15 85.48 167.73 85.48L170.48 85.48C172.05 85.48 173.33 84.29 173.33 82.82L173.33 5.88C173.33 4.41 172.05 3.23 170.48 3.23Z" />
	<path id="Layer" class="shp21" d="M161.14 24.09L153.82 24.09C152.09 24.09 150.69 25.39 150.69 26.99L150.69 81.73C150.69 83.33 152.09 84.63 153.82 84.63L161.14 84.63C162.87 84.63 164.27 83.33 164.27 81.73L164.27 26.99C164.27 25.39 162.87 24.09 161.14 24.09Z" />
	<path id="Layer" class="shp22" d="M125.44 85.48L113.59 85.48L143.23 11.65C143.35 11.36 143.55 11.11 143.82 10.94C144.09 10.76 144.41 10.66 144.74 10.66L153.15 10.66C153.41 10.67 153.67 10.73 153.9 10.85C154.13 10.96 154.33 11.13 154.48 11.33C154.63 11.53 154.72 11.77 154.75 12.01C154.78 12.25 154.75 12.5 154.66 12.73L125.44 85.48Z" />
	<path id="Layer" class="shp21" d="M223.49 85.48L21.76 85.48L21.76 97.85L223.49 97.85L223.49 85.48Z" />
	<path id="Layer" class="shp22" d="M42.15 58.05L93.07 58.05L93.07 63.24C93.07 69.14 90.55 74.8 86.06 78.97C81.57 83.14 75.49 85.48 69.14 85.48L66.07 85.48C59.72 85.48 53.64 83.14 49.15 78.97C44.66 74.8 42.14 69.14 42.14 63.24L42.14 58.05L42.15 58.05Z" />
	<path id="Layer" class="shp5" d="M87.96 58.05L50.25 58.05C50.25 58.05 39.22 66.41 32.92 59.55C28.36 54.59 50.19 54.36 50.19 54.36L50.84 54.15C50.84 54.15 41.48 35.88 50.33 32.83C56.44 30.71 57.92 46.2 58.23 51.23C61.45 49.98 67.73 48.17 68.27 52.92C68.27 52.92 68.97 33.36 77.78 35.23C85.08 36.79 74.24 55.17 74.24 55.17L75.01 55.6C75.01 55.6 95.14 41.92 100.08 45.1C103.81 47.51 87.96 58.05 87.96 58.05Z" />
	<path id="Layer" class="shp0" d="M56.02 58.05C56.02 58.05 56.41 41.19 63.24 41.65C70.07 42.11 60.55 58.05 60.55 58.05L56.02 58.05Z" />
	<path id="Layer" class="shp0" d="M56.02 58.05C56.02 58.05 49.17 42.14 39.89 46.21C30.82 50.17 50.33 58.05 50.33 58.05L56.02 58.05Z" />
	<path id="Layer" class="shp0" d="M70.1 58.05C70.1 58.05 76.27 43.71 86 45.08C95.73 46.44 73.95 58.05 73.95 58.05L70.1 58.05Z" />
	<path id="Layer" class="shp0" d="M80.12 58.05C80.12 58.05 99.2 49.12 102.63 54.5C106.06 59.88 80.12 58.05 80.12 58.05Z" />
</svg>