<svg width="75" height="68" viewBox="0 0 75 68" fill="none" xmlns="http://www.w3.org/2000/svg">
<path d="M0 0H75V68H0V0Z" fill="#F7DF1E"/>
<path d="M19.7202 56.8258L25.4597 53.6765C26.567 55.4565 27.5743 56.9626 29.9903 56.9626C32.3063 56.9626 33.7664 56.1412 33.7664 52.9462V31.2186H40.8145V53.0366C40.8145 59.6553 36.5354 62.6679 30.2925 62.6679C24.6543 62.6679 21.3814 60.0203 19.7201 56.8253" fill="black"/>
<path d="M44.6428 56.1409L50.3816 53.1283C51.8923 55.3652 53.8558 57.0083 57.3294 57.0083C60.2497 57.0083 62.112 55.6845 62.112 53.8586C62.112 51.6676 60.199 50.8916 56.9769 49.6139L55.2153 48.9287C50.1302 46.9663 46.757 44.5015 46.757 39.2978C46.757 34.505 50.7845 30.8531 57.0778 30.8531C61.5585 30.8531 64.7806 32.2683 67.0962 35.9657L61.6085 39.1607C60.4002 37.1981 59.0916 36.4222 57.0779 36.4222C55.0138 36.4222 53.7047 37.609 53.7047 39.1607C53.7047 41.0779 55.0138 41.854 58.0341 43.0409L59.796 43.7255C65.7871 46.0536 69.1603 48.4269 69.1603 53.7673C69.1603 59.519 64.1763 62.6683 57.4806 62.6683C50.9358 62.6683 46.7068 59.8384 44.6429 56.1409" fill="black"/>
</svg>
